<svg width="155" height="55" viewBox="0 0 155 55" fill="none" xmlns="http://www.w3.org/2000/svg">
<g clip-path="url(#clip0_1_7)">
<path d="M41.5921 9.28208H50.7416C50.9687 9.28208 51.1726 9.46625 51.2454 9.7425L60.9802 47.0513C61.0938 47.4859 60.8375 47.9316 60.4764 47.9316H52.6752C52.4393 47.9316 52.2326 47.7327 52.1656 47.4454L50.762 41.2795C50.6979 40.9922 50.4883 40.7933 50.2524 40.7933H42.0347C41.7959 40.7933 41.5892 40.9922 41.5251 41.2831L40.1594 47.4417C40.0953 47.729 39.8857 47.9316 39.6498 47.9316H31.8515C31.4904 47.9316 31.237 47.4859 31.3477 47.0513L41.0912 9.7425C41.164 9.46993 41.365 9.28208 41.595 9.28208H41.5921ZM48.0713 32.3068C48.4237 32.3068 48.677 31.8832 48.5809 31.4522L47.3637 26.034C47.1453 24.9953 46.8774 23.5772 46.6444 22.2991C46.5163 21.5956 45.7213 21.6103 45.6107 22.3175C45.4068 23.5919 45.1651 24.999 44.9263 26.034L43.7091 31.4522C43.613 31.8795 43.8664 32.3068 44.2187 32.3068H48.0713Z" fill="#17A550"/>
<path d="M37.3289 24.1555C36.9504 22.3433 36.4728 20.5274 35.8962 18.7225C38.4967 16.7593 41.4028 15.1313 44.5682 13.9452C38.9975 10.2545 32.9551 8.14392 26.8399 7.62457C26.5371 13.4369 26.2284 19.2493 25.9226 25.0616C29.4549 25.36 32.9551 26.4281 36.2573 28.2625L37.3289 24.1555Z" fill="#FFC728"/>
<path d="M54.2535 22.3838H56.1579V21.9087C56.1579 15.1939 60.8404 14.1662 63.901 14.1662C65.2434 14.1662 66.117 14.3651 66.117 14.3651V20.4464C66.117 20.4464 65.5229 20.288 64.8677 20.288C63.8049 20.288 62.6808 20.6416 62.6808 21.986V22.3801H67.6458V21.905C67.6458 15.2307 72.9223 13.4148 76.3585 13.4148C79.387 13.4148 81.1982 14.5603 81.1982 14.5603L79.8878 20.5237C79.8878 20.5237 78.825 19.7355 77.1709 19.7355C75.8285 19.7355 74.1745 20.4869 74.1745 21.986V22.3801H84.448V42.7197H77.9222V28.4614H74.1745V42.7197H67.6487V28.4614H62.6837V42.7197H56.1579V28.4614H54.2535V22.3801V22.3838Z" fill="#1D2F38"/>
<path d="M85.8371 14.4867H92.3628V33.7212C92.3628 35.655 92.6424 36.248 93.7053 36.248C94.0169 36.248 94.3605 36.1706 94.3605 36.1706V42.7675C94.3605 42.7675 93.3937 42.9259 92.2056 42.9259C88.9908 42.9259 85.8371 41.6625 85.8371 34.8299V14.4867Z" fill="#1D2F38"/>
<path d="M96.0786 22.3838H102.604V42.7233H96.0786V22.3838ZM96.1397 13.8126H102.54V19.8165H96.1397V13.8126Z" fill="#1D2F38"/>
<path d="M112.863 30.0489H112.989V29.6916C112.989 28.3877 112.24 27.8757 110.991 27.8757C108.868 27.8757 106.62 29.6143 106.62 29.6143L104.777 24.2807C104.777 24.2807 107.526 21.9123 112.051 21.9123C116.576 21.9123 119.514 24.7559 119.514 30.0084V42.727H113.551V41.5042C113.551 40.9516 113.612 40.3586 113.612 40.3586H113.551C113.551 40.3586 112.333 43.2022 109.148 43.2022C106.431 43.2022 103.746 41.029 103.746 36.8042C103.746 30.4835 110.365 30.0526 112.863 30.0526V30.0489ZM111.052 37.7913C112.269 37.7913 113.143 36.2517 113.143 34.8299V34.1595H112.738C111.302 34.1595 109.771 34.7525 109.771 36.2922C109.771 37.202 110.208 37.7913 111.052 37.7913Z" fill="#1D2F38"/>
<path d="M122.257 28.8223H120.26V22.7411H122.415V16.8956H128.783V22.7411H132.094V28.8223H128.783V33.6402C128.783 35.9717 130.251 36.248 131.189 36.248C131.876 36.248 132.313 36.1706 132.313 36.1706V42.7675C132.313 42.7675 131.314 42.9259 129.878 42.9259C126.882 42.9259 122.26 41.8209 122.26 34.8299V28.826L122.257 28.8223Z" fill="#1D2F38"/>
<path d="M142.24 21.9123C147.359 21.9123 149.921 26.1003 149.921 31.3896C149.921 32.2994 149.796 33.9164 149.796 33.9164H140.056C140.306 36.167 141.648 37.0767 143.396 37.0767C145.926 37.0767 147.735 35.2203 147.735 35.2203L149.889 40.4728C149.889 40.4728 147.423 43.1985 142.866 43.1985C136.433 43.1985 133.498 37.946 133.498 32.5352C133.498 26.6123 136.713 21.9123 142.24 21.9123ZM144.051 29.7726C144.019 28.1151 143.238 27.0875 142.208 27.0875C141.022 27.0875 140.335 28.1556 140.146 29.7726H144.048H144.051Z" fill="#1D2F38"/>
<path d="M4.73337 4.29154L4.32065 4.53164C3.75082 4.86317 3.50135 5.71622 3.76344 6.437L20.3853 52.1484C20.6474 52.8691 21.3218 53.1847 21.8917 52.8532L22.3044 52.6131C22.8742 52.2815 23.1237 51.4285 22.8616 50.7077L6.2397 4.99635C5.97761 4.27557 5.3032 3.96002 4.73337 4.29154Z" fill="#768F9C"/>
<path d="M5.01285 7.91318C6.56903 7.47788 7.55158 5.52929 7.20744 3.56089C6.8633 1.59249 5.32278 0.349673 3.7666 0.784975C2.21042 1.22028 1.22787 3.16886 1.57201 5.13726C1.91615 7.10566 3.45667 8.34848 5.01285 7.91318Z" fill="#768F9C"/>
<path d="M33.0396 8.70379C31.1147 8.15865 28.1823 7.73507 26.8428 7.62457C26.54 13.4369 26.2313 19.2493 25.9255 25.0616C26.8457 25.139 29.5655 25.6988 30.4799 25.883C31.4321 19.3487 32.3174 14.4609 33.0425 8.70747L33.0396 8.70379Z" fill="#FEAD1C"/>
<path d="M27.8271 24.1997C22.0555 23.2715 16.1208 24.3581 10.6958 27.4853C8.65447 21.8203 6.61607 16.1589 4.57475 10.4939C11.9916 6.2212 20.0579 4.54527 27.9698 5.44033C28.9133 5.54715 29.5947 6.63742 29.4753 7.82347C28.9249 13.2822 28.3774 18.7373 27.8271 24.196V24.1997Z" fill="#FFC728"/>
</g>
<defs>
<clipPath id="clip0_1_7">
<rect width="155" height="55" fill="white"/>
</clipPath>
</defs>
</svg>
